<svg width="1200" height="630" viewBox="0 0 1200 630" xmlns="http://www.w3.org/2000/svg">
  <defs>
    <linearGradient id="g" x1="0" y1="0" x2="0" y2="1">
      <stop offset="0%" stop-color="#FDECEA"/>
      <stop offset="100%" stop-color="#FFFFFF"/>
    </linearGradient>
  </defs>
  <rect width="1200" height="630" fill="url(#g)"/>

  <text x="60" y="70" font-family="Consolas, Menlo, monospace" font-size="16" letter-spacing="2" fill="#E43525">CASE STUDY — SPORTING GOODS ECOMMERCE — SEO</text>

  <text x="60" y="150" font-family="Arial, Helvetica, sans-serif" font-size="46" font-weight="700" fill="#171717">From page three</text>
  <text x="60" y="204" font-family="Arial, Helvetica, sans-serif" font-size="46" font-weight="700" fill="#171717">to page one.</text>
  <text x="60" y="246" font-family="Arial, Helvetica, sans-serif" font-size="19" fill="#5B5B5B">A six-month SEO turnaround for a premium golf equipment retailer.</text>

  <g transform="translate(60,300)">
    <circle cx="30" cy="230" r="26" fill="none" stroke="#171717" stroke-width="3"/>
    <circle cx="22" cy="220" r="2.4" fill="#171717"/>
    <circle cx="34" cy="216" r="2.4" fill="#171717"/>
    <circle cx="40" cy="230" r="2.4" fill="#171717"/>
    <circle cx="30" cy="242" r="2.4" fill="#171717"/>
    <circle cx="18" cy="234" r="2.4" fill="#171717"/>
    <line x1="30" y1="204" x2="30" y2="256" stroke="#171717" stroke-width="3" stroke-linecap="round"/>
    <path d="M30 204 L30 224 L52 214 L30 204 Z" fill="#E43525"/>
  </g>

  <polyline points="600,470 680,440 760,452 840,400 920,414 1000,340 1060,352 1120,290"
    fill="none" stroke="#E43525" stroke-width="4" stroke-linecap="round" stroke-linejoin="round"/>
  <circle cx="1120" cy="290" r="9" fill="#E43525"/>

  <rect x="880" y="205" width="190" height="60" rx="8" fill="#FFFFFF" stroke="#E43525" stroke-width="2"/>
  <text x="975" y="231" font-family="Arial, Helvetica, sans-serif" font-size="16" font-weight="700" fill="#171717" text-anchor="middle">+175% traffic</text>
  <text x="975" y="251" font-family="Consolas, Menlo, monospace" font-size="11" fill="#8A8A8A" text-anchor="middle">IN 6 MONTHS</text>

  <line x1="60" y1="560" x2="1140" y2="560" stroke="#EAEAEA" stroke-width="1"/>
  <text x="60" y="590" font-family="Consolas, Menlo, monospace" font-size="13" fill="#8A8A8A">FUNNELE — WHITE-LABEL SEO EXECUTION</text>
</svg>
